/* XPM */
static char *_f57ed152e0e4c0fedfcfd900b838b45xkV9n6azOhi4pym7[] = {
/* columns rows colors chars-per-pixel */
"50 48 159 2 ",
"   c None",
".  c #010101",
"X  c #0F0B0D",
"o  c #161113",
"O  c #1B1B1B",
"+  c #291F23",
"@  c #272727",
"#  c gray17",
"$  c #372A2F",
"%  c #3E2F35",
"&  c #3A3A3A",
"*  c #4E1D0F",
"=  c #511E0F",
"-  c #4F1E10",
";  c #531E11",
":  c #5A1F12",
">  c #532114",
",  c #5B2112",
"<  c #5B281D",
"1  c #622314",
"2  c #6B2516",
"3  c #702517",
"4  c #742917",
"5  c #772719",
"6  c #79271A",
"7  c #752818",
"8  c #7C2C19",
"9  c #522720",
"0  c #532B24",
"q  c #563430",
"w  c #593C3C",
"e  c #663028",
"r  c #6C372F",
"t  c #77403B",
"y  c #5C4246",
"u  c #5E4449",
"i  c #614447",
"p  c #61454B",
"a  c #65494E",
"s  c #6D4444",
"d  c #734443",
"f  c #6A4C53",
"g  c #6C525A",
"h  c #715057",
"j  c #74545B",
"k  c #77595F",
"l  c #715761",
"z  c #7C5B63",
"x  c DimGray",
"c  c #7F6A72",
"v  c #822C1B",
"b  c #8D2E1E",
"n  c #8D301D",
"m  c #9A341F",
"M  c #97341E",
"N  c #9F3223",
"B  c #A23323",
"V  c #AE3427",
"C  c #AD3A23",
"Z  c #B03527",
"A  c #B43C25",
"S  c #BA3E25",
"D  c #B33728",
"F  c #B93A28",
"G  c #B43F2A",
"H  c red",
"J  c #EE170E",
"K  c #EE180F",
"L  c #F1140C",
"P  c #E81F13",
"I  c #DE2D1C",
"U  c #DC311E",
"Y  c #C23E29",
"T  c #CE3E26",
"R  c #D83621",
"E  c #D53A24",
"W  c #8C433A",
"Q  c #934439",
"!  c #9E4437",
"~  c #A74434",
"^  c #B44431",
"/  c #C54129",
"(  c #CE442A",
")  c #D14027",
"_  c #D14028",
"`  c #975D5F",
"'  c #835E66",
"]  c #85636D",
"[  c #8C646D",
"{  c #856672",
"}  c #956974",
"|  c #936E79",
" . c #9C6E7A",
".. c #95717D",
"X. c #9A747F",
"o. c #A76A6F",
"O. c #AF7178",
"+. c #B1737A",
"@. c #9F7883",
"#. c #9B7580",
"$. c #A57481",
"%. c #A07884",
"&. c #A57D8B",
"*. c #AC7E8B",
"=. c #B47F8D",
"-. c #FE79CC",
";. c #9B808A",
":. c #9E9699",
">. c #AB818E",
",. c #B8818E",
"<. c #AB8290",
"1. c #B98792",
"2. c #B78B99",
"3. c #BB8C9B",
"4. c #B18694",
"5. c #BE909F",
"6. c #BD91A2",
"7. c #C4838F",
"8. c #C18796",
"9. c #C68C9C",
"0. c #CD8F9F",
"q. c #D08F9D",
"w. c #D2919F",
"e. c #C396A7",
"r. c #CE91A2",
"t. c #D294A4",
"y. c #DD9BAD",
"u. c #D798A9",
"i. c #CE9EB0",
"p. c #E39EB2",
"a. c #D3A2B4",
"s. c #DDA9BC",
"d. c #DFA2B4",
"f. c #C4BABD",
"g. c #E5A0B3",
"h. c #E4A9BD",
"j. c #EBA9BD",
"k. c #E9A5B8",
"l. c #FE82CE",
"z. c #FD8FD0",
"x. c #FD94D1",
"c. c #FD9CD1",
"v. c #EEADC1",
"b. c #E6B0C4",
"n. c #E9B2C6",
"m. c #EEB6CA",
"M. c #F1B1C5",
"N. c #F5B6CB",
"B. c #F3B8CD",
"V. c #FEA4D3",
"C. c #FEACD5",
"Z. c #F5BBD1",
"A. c #FABDD4",
"S. c #FDB4D5",
"D. c #CFC9CC",
"F. c #C7C4C5",
"G. c #FBC0D6",
"H. c #FDC2D8",
"J. c #EAE9E9",
/* pixels */
"                                                                                                    ",
"                                                                                                    ",
"                                                                                                    ",
"                                                                                                    ",
"                                                                                                    ",
"                                                                                                    ",
"                                                                                                    ",
"                                                                                                    ",
"                                                                                                    ",
"                                  y p                                                               ",
"                              p y y y y p f                                                         ",
"                            u u 2.d.u.=.j y a                                                       ",
"                            y <.H.G.9.} j u y y y y u y                     p y y y p               ",
"                          y p Z.5.g y u k | &.4.>.@.] a y u y           y y f &.3.$.f y             ",
"                          y z k y j 2.m.H.H.H.H.H.H.H.G.a.| y u y     y y ' Z.H.A.g.t.a p           ",
"                          y u f 3.A.H.H.H.H.H.H.H.H.H.H.H.H.s.] y u   y f Z.H.H.H.j.g.8.y f         ",
"                        y y ] B.H.H.H.H.H.H.H.H.H.H.H.H.H.H.H.H.3.u y y b.H.H.H.H.B.g.g.} y         ",
"                      y y X.A.H.H.H.H.H.H.H.H.H.H.H.H.H.H.H.H.H.H.%.y ..H.H.H.H.H.Z.g.g.r.y y       ",
"                      y | H.H.H.H.H.H.H.H.H.H.H.H.H.H.H.H.H.H.H.H.Z.2.A.H.H.H.H.H.N.g.g.r.y p       ",
"                    u z Z.H.H.B.H.H.H.H.H.H.H.H.H.H.H.H.H.H.H.H.H.H.H.H.H.H.H.H.H.j.g.g.} y         ",
"                  y y s.H.H.b.o &.H.H.H...&.H.H.H.H.H.H.H.H.H.H.H.H.H.H.H.H.H.H.N.g.g.9.y h         ",
"                  y ..H.H.H.l . c H.H.a.. % H.H.H.H.H.H.H.H.H.H.H.H.H.H.H.H.H.A.g.g.0.a p           ",
"                y u n.H.H.H.o & D.H.H.l . F.H.H.H.H.H.H.H.H.H.H.H.H.H.H.H.H.H.j.g.,.p u             ",
"                u ] H.H.H.a.. x f.H.H.+ @ J.H.H.H.H.H.H.H.H.H.H.H.H.H.H.H.H.H.r.' y p               ",
"                y 2.H.H.H.&.. # ;.H.m.. O :.H.H.H.H.H.H.H.H.H.H.H.H.H.H.H.G.a y y y                 ",
"                y s.H.H.H.{ . . 6.H.i.. . g H.H.H.H.H.H.H.H.H.H.H.H.H.H.H.H.f y                     ",
"              y y Z.H.H.H.] . X Z.H.6.. . <.H.H.H.H.H.H.H.H.H.H.H.H.H.H.H.H.#.y                     ",
"              y u A.V.V.S.... g H.H.e.. X B.H.H.H.H.H.H.H.H.H.H.H.H.H.H.H.H.&.y                     ",
"              y a x.-.-.z.s.$ n.H.H.m.. { H.H.V.x.z.c.S.H.H.H.H.H.H.H.H.H.H.>.y                     ",
"              y y S.V.c.S.H.H.H.H.H.H.a.G.H.C.-.-.-.-.l.H.H.H.H.H.H.H.H.H.H.&.y - * *               ",
"              w y n.H.H.H.H.H.H.H.H.H.H.H.H.H.C.x.x.c.S.H.H.H.H.H.H.H.H.G.N.| i C 8 *               ",
"      = * * * * 9 1.A.H.H.H.H.H.H.H.H.H.H.H.H.H.H.H.H.H.H.H.H.H.H.H.H.N.g.g.$.d ( ( , =             ",
"    * = m A C v ; > O.M.H.H.H.H.H.h.u.G.H.H.H.H.H.H.H.H.H.H.H.H.H.H.v.g.g.g.[ Q ( Y B ;             ",
"    * M ( ( ( ( S 1 - o.M.H.H.H.H.m.h.H.H.H.H.H.H.H.H.H.H.H.H.H.A.k.g.g.g.y.u ^ ( F V =             ",
"    * S ( ( I E ( / 2 - +.M.H.H.H.H.H.H.H.H.H.H.H.H.H.H.H.H.H.N.g.g.g.g.g. .s ( ( D V *             ",
"  - * ( ( I H L ( ( / 1 > 7.v.H.H.H.H.H.H.H.H.H.H.H.H.H.H.A.j.g.g.g.g.g.y.u ~ ( ( V B *             ",
"  * ; Y Y T P R ( ( ( S , < w.j.A.H.H.H.H.H.H.H.H.H.H.H.M.g.g.g.g.g.g.g.z d ( ( ( V N *             ",
"  * 1 V V V F / ( ( ( ( C ; e u.g.v.N.A.A.G.A.A.B.N.v.g.g.g.g.g.g.g.g.*.y ^ ( ( Y V b *             ",
"    ; V V V V V F ( ( ( ( B - r y.g.g.g.g.g.g.g.g.g.g.g.g.g.g.g.g.g.t.u ! ( ( ( F V 1 *             ",
"    * v V V V V V D ( ( ( ( m * t p.g.g.g.g.g.g.g.g.g.g.g.g.g.g.g.u.a W ( ( ( ( D V *               ",
"    * * b V V V V V V / ( ( ( n * ` g.g.g.g.g.g.g.g.g.g.g.g.g.g.9.a Q ( ( ( ( ( V N *               ",
"      - * 5 V V V V V V Y ( ( ( 2 > q.g.g.g.g.g.g.g.g.g.g.g.y.[ i ~ I J _ ( ( F V 3 *               ",
"          * , N V V V V V Y ( ( A * d r.p.g.g.g.g.g.g.g.t.} p q G ( K H U ( Y V V *                 ",
"            * * 2 B V V V V Y ( / * 0 y u j [  . .} ' a u u 9 * S ( ) U ( ( V Z 7 *                 ",
"                * * 2 B V V Z C 4 *         y y u y           * m ( ( ( ( Y Z v *                   ",
"                    * * : 6 2 * * *                           * ; m A C m 4 ; * *                   ",
"                          * *                                   * * * * * * -                       ",
"                                                                                                    "
};
