/* XPM */
static char *_e9a09d49cb14d2ed0508af1253a3705l4SxocBPoq1r4oRr[] = {
/* columns rows colors chars-per-pixel */
"50 48 159 2 ",
"   c None",
".  c #010101",
"X  c #0F0B0D",
"o  c #161113",
"O  c #1B1B1B",
"+  c #291F23",
"@  c #272727",
"#  c gray17",
"$  c #372A2F",
"%  c #3E2F35",
"&  c #3A3A3A",
"*  c #4E1D0F",
"=  c #511E0F",
"-  c #4F1E10",
";  c #531E11",
":  c #5A1F12",
">  c #532114",
",  c #5B2112",
"<  c #5B281D",
"1  c #622314",
"2  c #6B2516",
"3  c #702517",
"4  c #742917",
"5  c #772719",
"6  c #79271A",
"7  c #752818",
"8  c #7C2C19",
"9  c #522720",
"0  c #532B24",
"q  c #563430",
"w  c #593C3C",
"e  c #663028",
"r  c #6C372F",
"t  c #77403B",
"y  c #5C4246",
"u  c #5E4449",
"i  c #614447",
"p  c #61454B",
"a  c #65494E",
"s  c #6D4444",
"d  c #734443",
"f  c #6A4C53",
"g  c #6C525A",
"h  c #715057",
"j  c #74545B",
"k  c #77595F",
"l  c #715761",
"z  c #7C5B63",
"x  c DimGray",
"c  c #7F6A72",
"v  c #822C1B",
"b  c #8D2E1E",
"n  c #8D301D",
"m  c #9A341F",
"M  c #97341E",
"N  c #9F3223",
"B  c #A23323",
"V  c #AE3427",
"C  c #AD3A23",
"Z  c #B03527",
"A  c #B43C25",
"S  c #BA3E25",
"D  c #B33728",
"F  c #B93A28",
"G  c #B43F2A",
"H  c red",
"J  c #EE170E",
"K  c #EE180F",
"L  c #F1140C",
"P  c #E81F13",
"I  c #DE2D1C",
"U  c #DC311E",
"Y  c #C23E29",
"T  c #CE3E26",
"R  c #D83621",
"E  c #D53A24",
"W  c #8C433A",
"Q  c #934439",
"!  c #9E4437",
"~  c #A74434",
"^  c #B44431",
"/  c #C54129",
"(  c #CE442A",
")  c #D14027",
"_  c #D14028",
"`  c #975D5F",
"'  c #835E66",
"]  c #85636D",
"[  c #8C646D",
"{  c #856672",
"}  c #956974",
"|  c #936E79",
" . c #9C6E7A",
".. c #95717D",
"X. c #9A747F",
"o. c #A76A6F",
"O. c #AF7178",
"+. c #B1737A",
"@. c #9F7883",
"#. c #9B7580",
"$. c #A57481",
"%. c #A07884",
"&. c #A57D8B",
"*. c #AC7E8B",
"=. c #B47F8D",
"-. c #FE79CC",
";. c #9B808A",
":. c #9E9699",
">. c #AB818E",
",. c #B8818E",
"<. c #AB8290",
"1. c #B98792",
"2. c #B78B99",
"3. c #BB8C9B",
"4. c #B18694",
"5. c #BE909F",
"6. c #BD91A2",
"7. c #C4838F",
"8. c #C18796",
"9. c #C68C9C",
"0. c #CD8F9F",
"q. c #D08F9D",
"w. c #D2919F",
"e. c #C396A7",
"r. c #CE91A2",
"t. c #D294A4",
"y. c #DD9BAD",
"u. c #D798A9",
"i. c #CE9EB0",
"p. c #E39EB2",
"a. c #D3A2B4",
"s. c #DDA9BC",
"d. c #DFA2B4",
"f. c #C4BABD",
"g. c #E5A0B3",
"h. c #E4A9BD",
"j. c #EBA9BD",
"k. c #E9A5B8",
"l. c #FE82CE",
"z. c #FD8FD0",
"x. c #FD94D1",
"c. c #FD9CD1",
"v. c #EEADC1",
"b. c #E6B0C4",
"n. c #E9B2C6",
"m. c #EEB6CA",
"M. c #F1B1C5",
"N. c #F5B6CB",
"B. c #F3B8CD",
"V. c #FEA4D3",
"C. c #FEACD5",
"Z. c #F5BBD1",
"A. c #FABDD4",
"S. c #FDB4D5",
"D. c #CFC9CC",
"F. c #C7C4C5",
"G. c #FBC0D6",
"H. c #FDC2D8",
"J. c #EAE9E9",
/* pixels */
"                                                                                                    ",
"                                                                                                    ",
"                                                                                                    ",
"                                                                                                    ",
"                                                                                                    ",
"                                                                                                    ",
"                                                                                                    ",
"                                                                                                    ",
"                                                                                                    ",
"                                                              p y                                   ",
"                                                        f p y y y y p                               ",
"                                                      a y j =.u.d.2.u u                             ",
"              p y y y p                     y u y y y y u j } 9.G.H.<.y                             ",
"            y f $.3.&.f y y           y u y a ] @.>.4.&.| k u y g 5.Z.p y                           ",
"          p a t.g.A.H.Z.' y y     y u y | a.G.H.H.H.H.H.H.H.m.2.j y k z y                           ",
"        f y 8.g.j.H.H.H.Z.f y   u y ] s.H.H.H.H.H.H.H.H.H.H.H.H.A.3.f u y                           ",
"        y } g.g.B.H.H.H.H.b.y y u 3.H.H.H.H.H.H.H.H.H.H.H.H.H.H.H.H.B.] y y                         ",
"      y y r.g.g.Z.H.H.H.H.H...y %.H.H.H.H.H.H.H.H.H.H.H.H.H.H.H.H.H.H.A.X.y u                       ",
"      p y r.g.g.N.H.H.H.H.H.A.2.Z.H.H.H.H.H.H.H.H.H.H.H.H.H.H.H.H.H.H.H.H.| y                       ",
"        y } g.g.j.H.H.H.H.H.H.H.H.H.H.H.H.H.H.H.H.H.H.H.H.H.H.H.H.H.B.H.H.Z.z u                     ",
"        h y 9.g.g.N.H.H.H.H.H.H.H.H.H.H.H.H.H.H.H.H.H.H.&...H.H.H.&.o b.H.H.s.y y                   ",
"          p a 0.g.g.A.H.H.H.H.H.H.H.H.H.H.H.H.H.H.H.H.H.% . a.H.H.c . l H.H.H...y                   ",
"            u p ,.g.j.H.H.H.H.H.H.H.H.H.H.H.H.H.H.H.H.H.F.. l H.H.D.& o H.H.H.n.u y                 ",
"              p y ' r.H.H.H.H.H.H.H.H.H.H.H.H.H.H.H.H.H.J.@ + H.H.f.x . a.H.H.H.] u                 ",
"                y y y a G.H.H.H.H.H.H.H.H.H.H.H.H.H.H.H.:.O . m.H.;.# . &.H.H.H.2.y                 ",
"                    y f H.H.H.H.H.H.H.H.H.H.H.H.H.H.H.H.g . . i.H.6.. . { H.H.H.s.y                 ",
"                    y #.H.H.H.H.H.H.H.H.H.H.H.H.H.H.H.H.<.. . 6.H.Z.X . ] H.H.H.Z.y y               ",
"                    y &.H.H.H.H.H.H.H.H.H.H.H.H.H.H.H.H.B.X . e.H.H.g . ..S.V.V.A.u y               ",
"                    y >.H.H.H.H.H.H.H.H.H.H.S.c.z.x.V.H.H.{ . m.H.H.n.$ s.z.-.-.x.a y               ",
"              * * - y &.H.H.H.H.H.H.H.H.H.H.l.-.-.-.-.C.H.G.a.H.H.H.H.H.H.S.c.V.S.y y               ",
"              * 8 C i | N.G.H.H.H.H.H.H.H.H.S.c.x.x.C.H.H.H.H.H.H.H.H.H.H.H.H.H.n.y w               ",
"            = , ( ( d $.g.g.N.H.H.H.H.H.H.H.H.H.H.H.H.H.H.H.H.H.H.H.H.H.H.H.H.A.1.9 * * * * =       ",
"            ; B Y ( Q [ g.g.g.v.H.H.H.H.H.H.H.H.H.H.H.H.H.H.G.u.h.H.H.H.H.H.M.O.> ; v C A m = *     ",
"            = V F ( ^ u y.g.g.g.k.A.H.H.H.H.H.H.H.H.H.H.H.H.H.h.m.H.H.H.H.M.o.- 1 S ( ( ( ( M *     ",
"            * V D ( ( s  .g.g.g.g.g.N.H.H.H.H.H.H.H.H.H.H.H.H.H.H.H.H.H.M.+.- 2 / ( E I ( ( S *     ",
"            * V V ( ( ~ u y.g.g.g.g.g.j.A.H.H.H.H.H.H.H.H.H.H.H.H.H.H.v.7.> 1 / ( ( L H I ( ( * -   ",
"            * N V ( ( ( d z g.g.g.g.g.g.g.M.H.H.H.H.H.H.H.H.H.H.H.A.j.w.< , S ( ( ( R P T Y Y ; *   ",
"            * b V Y ( ( ^ u *.g.g.g.g.g.g.g.g.v.N.B.A.A.G.A.A.N.v.g.u.e ; C ( ( ( ( / F V V V 1 *   ",
"            * 1 V F ( ( ( ! u t.g.g.g.g.g.g.g.g.g.g.g.g.g.g.g.g.g.y.r - B ( ( ( ( F V V V V V ;     ",
"              * V D ( ( ( ( W a u.g.g.g.g.g.g.g.g.g.g.g.g.g.g.g.p.t * m ( ( ( ( D V V V V V v *     ",
"              * N V ( ( ( ( ( Q a 9.g.g.g.g.g.g.g.g.g.g.g.g.g.g.` * n ( ( ( / V V V V V V b * *     ",
"              * 3 V F ( ( _ J I ~ i [ y.g.g.g.g.g.g.g.g.g.g.g.q.> 2 ( ( ( Y V V V V V V 5 * -       ",
"                * V V Y ( U H K ( G q p } t.g.g.g.g.g.g.g.p.r.d * A ( ( Y V V V V V N , *           ",
"                * 7 Z V ( ( U ) ( S * 9 u u a ' }  . .[ j u y 0 * / ( Y V V V V V 2 * *             ",
"                  * v Z Y ( ( ( ( m *           y u y y         * 4 C Z V V B 2 * *                 ",
"                  * * ; 4 m C A m ; *                           * * * 2 6 : * *                     ",
"                      - * * * * * *                                   * *                           ",
"                                                                                                    "
};
