/* XPM */
static char *_15fb43d1d754305acbdbd636bc93e22BaVzHwdcxZTBxygJ[] = {
/* columns rows colors chars-per-pixel */
"50 50 141 2 ",
"   c None",
".  c #4E1D0F",
"X  c #511E0F",
"o  c #4E1D10",
"O  c #511E10",
"+  c #4F2012",
"@  c #552113",
"#  c #5C2113",
"$  c #51261B",
"%  c #5A281C",
"&  c #692515",
"*  c #712517",
"=  c #752917",
"-  c #7B2A19",
";  c #55302B",
":  c #573837",
">  c #5A3D3E",
",  c #643228",
"<  c #6A362E",
"1  c #713E37",
"2  c #7A3B36",
"3  c #79423E",
"4  c #5C4247",
"5  c #5D4448",
"6  c #634345",
"7  c #6E4040",
"8  c #62454B",
"9  c #65494E",
"0  c #7E4743",
"q  c #674B50",
"w  c #6B4C53",
"e  c #704E56",
"r  c #735359",
"t  c #79565E",
"y  c #77595F",
"u  c #7C5C64",
"i  c #852D1B",
"p  c #8C2D1E",
"a  c #8D311C",
"s  c #94311E",
"d  c #942F20",
"f  c #953020",
"g  c #9C3223",
"h  c #803C39",
"j  c #963830",
"k  c #A33324",
"l  c #AE3427",
"z  c #AD3A23",
"x  c #B13627",
"c  c #BB3E26",
"v  c #B13528",
"b  c #B73828",
"n  c #BB3A28",
"m  c #C23E29",
"M  c #C54128",
"N  c #CE442A",
"B  c #814E4B",
"V  c #84504D",
"C  c #915959",
"Z  c #845E66",
"A  c #885F69",
"S  c #84626A",
"D  c #8B636D",
"F  c #976263",
"G  c #8F6770",
"H  c #8E6A74",
"J  c #936772",
"K  c #966975",
"L  c #986B76",
"P  c #946E79",
"I  c #9C6E7A",
"U  c #99747E",
"Y  c #A2727E",
"T  c #B4767E",
"R  c #9C7480",
"E  c #A77581",
"W  c #A47A87",
"Q  c #AA7884",
"!  c #A67D8A",
"~  c #B57780",
"^  c #BB7B85",
"/  c #B57F8D",
"(  c #AD828F",
")  c #B6808F",
"_  c #B9818C",
"`  c #B18693",
"'  c #BE8594",
"]  c #B48997",
"[  c #BD8F9E",
"{  c #BF909F",
"}  c #C2828D",
"|  c #C28897",
" . c #C68C9A",
".. c #C98C9C",
"X. c #CB929E",
"o. c #C595A5",
"O. c #CD92A3",
"+. c #CB9AAB",
"@. c #D596A7",
"#. c #D198A6",
"$. c #D69DAB",
"%. c #DD9BAD",
"&. c #E19DAF",
"*. c #E39FB2",
"=. c #D5A2B4",
"-. c #DAA7B9",
";. c #E5A0B3",
":. c #E8A4B7",
">. c #E1A8B7",
",. c #EAA6B9",
"<. c #ECAABE",
"1. c #EDAEC2",
"2. c #F0AFC4",
"3. c #E6B0C4",
"4. c #EBB3C7",
"5. c #ECB5C9",
"6. c #F2B3C7",
"7. c #F5B5CA",
"8. c #F5B7CC",
"9. c #F6B7CD",
"0. c #F3B4C8",
"q. c #F0B8CC",
"w. c #F1B9CD",
"e. c #F6B8CD",
"r. c #F6B9CD",
"t. c #F7BACF",
"y. c #F4BBD0",
"u. c #F7BAD0",
"i. c #F6BDD2",
"p. c #F7BDD3",
"a. c #F8BBD1",
"s. c #F9BCD2",
"d. c #FABED3",
"f. c #F9BFD5",
"g. c #FBBFD4",
"h. c #FABFD5",
"j. c #FBBFD5",
"k. c #FAC0D6",
"l. c #FCC1D7",
"z. c #FDC1D7",
"x. c #FDC2D8",
/* pixels */
"                                                                                                    ",
"                                                                                                    ",
"                                                                                                    ",
"                                                                                                    ",
"                                                                                                    ",
"                                                                                                    ",
"                                                                                                    ",
"                                          4 4 5 5 4 4 4 4                                           ",
"                                    4 5 4 4 5 r u u y 9 4 4 4 4                                     ",
"                                4 4 4 u ` -.f.x.x.x.x.x.5.o.P 8 4 5                                 ",
"                              5 4 D =.x.x.x.x.x.x.x.x.x.x.x.x.w.( 9 4 4                             ",
"                          4 4 w +.x.x.x.x.x.x.x.x.x.x.x.x.x.x.x.x.5.H 4 5                           ",
"                        4 4 S 5.x.x.x.x.x.x.x.x.x.x.x.x.x.x.x.x.x.x.z.] 4 4                         ",
"                      4 4 D i.x.x.x.x.x.x.x.x.x.x.x.x.x.x.x.x.x.x.x.x.x.o.5 4                       ",
"                      4 u i.x.x.x.x.x.x.x.x.x.x.x.x.x.x.x.x.x.x.x.x.x.x.x.[ 4 4                     ",
"                    4 q 4.x.x.x.x.x.x.x.x.x.x.x.x.x.x.x.x.x.x.x.x.x.x.x.x.x.U 4 4                   ",
"        e 5 4 4 4 4 4 9 u P ` +.5.x.x.x.x.x.x.x.x.x.x.x.x.x.x.x.x.x.x.w.=.{ W 8 5 9 8 w r           ",
"      8 4 w L E Y I D r 5 4 4 4 4 -.x.x.x.x.x.x.x.x.x.x.x.x.x.x.u.H w 4 4 4 4 4 8 w w 9 4 4 w       ",
"    4 4 Y &.;.;.;.9.x.x.k.3.+.( R w.x.x.x.x.x.x.x.x.x.x.x.x.x.x.4.9 w D ! [ =.4.0.;.;.*.| t 4 8     ",
"    4 I ;.;.;.,.d.x.x.x.x.x.x.x.x.x.x.x.x.x.x.x.x.x.x.x.x.x.x.x.x.z.x.x.x.x.x.x.x.r.;.;.;.*.Z 4     ",
"  4 4 ..;.;.;.8.x.x.x.x.x.x.x.x.x.x.x.x.x.x.x.x.x.x.x.x.x.x.x.x.x.x.x.x.x.x.x.x.x.x.8.;.;.;...4 4   ",
"  4 4  .;.;.;.0.x.x.x.x.x.x.x.x.x.x.x.x.x.x.x.x.x.x.x.x.x.x.x.x.x.x.x.x.x.x.x.x.x.x.9.;.;.;.@.4 8   ",
"    4 ) ;.;.;.<.x.x.x.x.x.x.x.x.x.x.x.x.x.x.x.x.x.x.x.x.x.x.x.x.x.x.x.x.x.x.x.x.x.x.1.;.;.;...4 9   ",
"    4 I ;.;.;.;.r.x.x.x.x.x.x.x.x.x.x.x.x.x.x.x.x.x.x.x.x.x.x.x.x.x.x.x.x.x.x.x.x.f.;.;.;.;./ 4     ",
"    4 t ;.;.;.;.;.<.d.x.x.x.x.x.x.x.x.x.x.x.x.x.x.x.x.x.x.x.x.x.x.x.x.x.x.x.x.x.8.:.;.;.;.;.K 4     ",
"    9 4 I %.;.;.;.;.:.f.x.x.x.x.x.x.x.x.x.x.x.x.x.x.x.x.x.x.x.x.x.x.x.x.x.x.z.<.;.;.;.;.;.@.9 8     ",
"      9 4 4 r A ' ;.;.8.x.x.1.$.#.>.f.x.x.x.x.x.x.x.x.x.x.x.x.x.x.x.x.x.x.x.u.;.;.%.' Q D 8 4       ",
"        D u 8 4 D ;.;.r._ , . . . . @ B X.x.x.x.x.x.x.x.x.x.x.x.x.x.x.x.x.x.a.;.;.J 4 4 4 w         ",
"              E | ;.;.C . @ - a s i & . . B 4.x.x.x.x.x.x.x.x.x.x.x.x.x.x.x.x.1.;...D K             ",
"                9 *.^ . & M N N N N N c = . < 4.x.x.x.x.x.x.x.x.x.x.x.x.x.x.9.;.;.9 4               ",
"                4 ) 3 o c N N N N N N N N a . V x.x.x.x.x.x.x.x.x.x.x.x.x.8.;.;.*.8                 ",
"                4 w @ & N N N N N N N N N N = .  .x.x.x.x.x.x.x.x.x.x.x.8.;.;.;.' 4                 ",
"                  > . i N N N N N N N N N N c O 1 x.x.x.x.x.x.x.x.x.x.6.;.;.;.;.t 4                 ",
"                  : . s n N N N N N N N N N N - . $.x.x.x.x.x.x.x.x.2.;.;.;.;.' 5                   ",
"                    . d l b N N N N N N N N N z . F x.x.x.x.x.x.r.,.;.;.;.;.*.w 4                   ",
"                    + # v l n N N N N N N N N N # % 1.8.0.6.1.,.;.;.;.;.;.;.G 5                     ",
"                      . g l l n N N N N N N N N a . T ;.;.;.;.;.;.;.;.;.;.Y 5                       ",
"                      o @ x l l n N N N N N N N c . 0 ;.;.;.;.;.;.;.;.*.D 4                         ",
"                        . i l l l x m N N N N N N & @ %.;.;.;.;.;.;.O.w 4                           ",
"                        . . k l l l l x n b l l l k . } ;.;.;.;.%.S 4 >                             ",
"                          . # l l l l l l l l l l l . ~ ;.;...Z 4 4 ;                               ",
"                            . - l l l l l l l l l p . D t 5 4 6 2 @ .                               ",
"                            . . p l l l l l l l l . $ 6 7 h j k O .                                 ",
"                              o . p l l l l l l * O g l l l f X .                                   ",
"                                o . & k l l l - . @ p s i @ . o                                     ",
"                                    . . . . . .   o . . . .                                         ",
"                                        . .                                                         ",
"                                                                                                    ",
"                                                                                                    ",
"                                                                                                    "
};
