/* XPM */
static char *_c4cead8e00e4e6dcd6ef83e43918afcc941n2Y4M5uz1boQ[] = {
/* columns rows colors chars-per-pixel */
"50 50 203 2 ",
"   c None",
".  c #000000",
"X  c #0A0608",
"o  c #1A1216",
"O  c #3F190D",
"+  c #2A1419",
"@  c #281C22",
"#  c #392928",
"$  c #333232",
"%  c #4B0000",
"&  c #451B0C",
"*  c #4B1C0E",
"=  c #4F1500",
"-  c #4D1E11",
";  c #531E11",
":  c #580D00",
">  c #7F1E00",
",  c #4F2315",
"<  c #562012",
"1  c #5B2112",
"2  c #51271E",
"3  c #79240C",
"4  c #622214",
"5  c #6B2416",
"6  c #6C2A1B",
"7  c #7B2A1B",
"8  c #722816",
"9  c #442E2E",
"0  c #4A2923",
"q  c #562821",
"w  c #44302F",
"e  c #453132",
"r  c #4C3535",
"t  c #4C353A",
"y  c #4F393A",
"u  c #533A3D",
"i  c #533638",
"p  c #6A322C",
"a  c #643B3A",
"s  c #683937",
"d  c #7A3934",
"f  c #74332D",
"g  c #7E413C",
"h  c #553E41",
"j  c #5A3F43",
"k  c #4C3B42",
"l  c #5B4246",
"z  c #5E4449",
"x  c #584349",
"c  c #505251",
"v  c #61464A",
"b  c #64484D",
"n  c #664346",
"m  c #774242",
"M  c #664B52",
"N  c #6B4D53",
"B  c #714F55",
"V  c #6E5157",
"C  c #69575B",
"Z  c #73545B",
"A  c #79555C",
"S  c #74545B",
"D  c #7C5C63",
"F  c #7C5E69",
"G  c #765964",
"H  c #646162",
"J  c #6E7372",
"K  c #7D787A",
"L  c #801A00",
"P  c #832C1B",
"I  c #8C2E1D",
"U  c #922D1E",
"Y  c #92311D",
"T  c #9E351F",
"R  c #8C301B",
"E  c #952E20",
"W  c #982F21",
"Q  c #9A3527",
"!  c #8A3832",
"~  c #A23423",
"^  c #AD3427",
"/  c #A3362B",
"(  c #AC3A28",
")  c #B13527",
"_  c #B43A25",
"`  c #BC3E26",
"'  c #B23528",
"]  c #BB3A28",
"[  c #B53828",
"{  c #C23E29",
"}  c #C73E26",
"|  c #84423C",
" . c #BE422D",
".. c #AD4432",
"X. c #C04027",
"o. c #C4412A",
"O. c #CD442A",
"+. c #D2452A",
"@. c #8C575A",
"#. c #825B64",
"$. c #875E68",
"%. c #915D61",
"&. c #85636B",
"*. c #8C636D",
"=. c #9C656B",
"-. c #8B6974",
";. c #8E6B78",
":. c #956974",
">. c #9C6E79",
",. c #956D78",
"<. c #9C717C",
"1. c #95717B",
"2. c #A1717D",
"3. c #AD7179",
"4. c #A0646A",
"5. c #9C7682",
"6. c #9A7683",
"7. c #AA7683",
"8. c #A57986",
"9. c #B27D8B",
"0. c #B87D88",
"q. c #FE74CB",
"w. c #FE7ECD",
"e. c #9F9B9D",
"r. c #848182",
"t. c #AA818E",
"y. c #B7828F",
"u. c #AE8492",
"i. c #B28593",
"p. c #BC8493",
"a. c #B28897",
"s. c #B58C9A",
"d. c #BA8E9D",
"f. c #BD909E",
"g. c #BE91A0",
"h. c #B8A3AB",
"j. c #B9B6B7",
"k. c #C08696",
"l. c #CB8D9C",
"z. c #C18998",
"x. c #D08E9E",
"c. c #D3919F",
"v. c #C294A4",
"b. c #CD92A3",
"n. c #C698A8",
"m. c #CC9CAD",
"M. c #C798A8",
"N. c #D393A3",
"B. c #DC9AAC",
"V. c #D797A8",
"C. c #D09FB0",
"Z. c #E19CAF",
"A. c #E49FB2",
"S. c #D4A2B4",
"D. c #DAA7B9",
"F. c #DDAABD",
"G. c #D9A6B8",
"H. c #C4A0AE",
"J. c #E5A0B4",
"K. c #E9A3B6",
"L. c #EBA5B9",
"P. c #E2AABE",
"I. c #EDAABE",
"U. c #E6A6B9",
"Y. c #FE82CD",
"T. c #FE88CE",
"R. c #FE9BD1",
"E. c #FD91D0",
"W. c #E3AEC1",
"Q. c #EEADC2",
"!. c #E6B1C4",
"~. c #E9B2C6",
"^. c #EDB5CA",
"/. c #EBB9CC",
"(. c #F4B6CB",
"). c #F4B9CE",
"_. c #F2B2C7",
"`. c #FDA5D3",
"'. c #FEAAD4",
"]. c #EFBED1",
"[. c #FCB5D5",
"{. c #F5BCD1",
"}. c #FBBDD5",
"|. c #FFBED9",
" X c #F0AEC3",
".X c #C9C7C9",
"XX c #FAC0D6",
"oX c #FCC1D7",
"OX c #FCC0D6",
"+X c #FDC2D8",
"@X c #FDC3D8",
"#X c #FEC3D9",
"$X c #FFC3DA",
"%X c #FFC4DB",
"&X c #FDC4D8",
"*X c #FFC5DC",
"=X c #FFC6DC",
"-X c #FFC7DE",
";X c #FDC2D8",
":X c #FFC8DF",
">X c #FFC8DE",
",X c #FFCAE1",
"<X c #FFCCE3",
/* pixels */
"                                        l l l h h j l l l                                           ",
"                                  u 9 # r M D &.&.D Z l # # r h                                     ",
"                              y u Z ,.t.d.v.m.m.C.m.n.g.i.5.&.z y                                   ",
"                          l z V &.t.S.).*X*X*X*X*X*X*X>XoXF.g.1.D b l                               ",
"                        l l M t.~.XXXXoX$X$X$X$X$X$X$X$X$XXX}.{.m.&.i z                             ",
"                      u y ,.G.^.XX%X$X$XoX$X$X$XoX$X$X$X$X$X$X%X{.P.d.v i                           ",
"                    h v 8.G.%X%X$X$X$X$XoXoXoX$X$XoX$X$X$X$X$X$X*X%X^.g.&.u                         ",
"                  z z 5.W.,XoXoX$XoX$X$XoXoXoXoXXXoX$X$X$X$XXXXXoX$X$X$Xg.D u                       ",
"                  v D W.%X$X$XoXoXoX$X$X$X$X$X}./.oX$X$X$XoX).^.{.$X$X$XXXd.y z                     ",
"                j S G.}.%X$X$X$XoXoX$X$X$X>XS.F -.^.oX$X$X{.;.M m.*X$X$X%X~.u.r z                   ",
"              r A a.}.$X$X$X$X$XoXoX$X$X$X$Xs.. . a.).*XXXD.$ . ;.W.$X$X$X$XF.D z                   ",
"              y 1.~.oX$X$X$X$X$XoXoX$X$X$X/.h.J . k W.>X/.h.r.$ t s.%X$X$X*X).d.V h                 ",
"            h N s.*X$X$X$X$XoXoXoX$X$X$X$XD..X.X. . F.>X].j.j.H . 8.%X$X$X$X$X^.D l                 ",
"            e 5.F.%X$X$X$X$XoXoXoXoX$X$X%XH.j.j.. . F.,X/.e.e.c . 5.%X$X$X$X$X{.t.Z y               ",
"          z + a.{.$X$X$X$XoXoXoX$X$X$X$X%Xs.K J . . F.,X!.H H $ . 1.*X$X$X$X$XXXS.-.9               ",
"          l 9 v.%X$X$X$XoXoXoXoX$X$X$X$X*Xu.+ . X . F.<XP.@ . . . 6.*X$X$X$X$XoX).5.w               ",
"          j D S.*XoX$X$X$XoXoXoX$XoXoXoX%Xd.x . . . F.,XW.x o . . 5.*X$X$X$XoXoX%Xt.u l             ",
"        z r m.}.$X$X$X$X$XoXoXoX$XoXoXoX%Xm.G . X @ F.,X!.F @ . # u.*X$X$X$XoX$X%Xs.V h             ",
"      u v t.^.*XoXoX$X$X$X$XoXoX$X$X&XoX$X).5.. X F !.>X).v.o . F S.%X$X$X$X$X$X%Xv.#.u             ",
"      z &.W.XX$XoXoX$X$X$X$X$X$X$X}.}.}.$X>Xn.# h M.{.%XoX^.G # a.{.|.}.$X$X$X$X%Xm.&.y z           ",
"    y D d.}.$X$XoXoX$X$X$X$X$X$X[.'.`.'.[.$X!.a.5.}.%X$X$XXXn.u.F.|.'.'.}.$X$X$X%Xm.*.u z           ",
"  z u 8.{.oXoXoXoXoX$X$X$X$X}.`.T.w.Y.Y.Y.'.}.{.).oX$X$X$XoX{.{.[.R.w.w.E.[.%X$X%Xm.&.y j b         ",
"  y #.b.%XoX$X$X$X$X$X$X$X$XoX`.T.q.q.q.w.'.$X%X%XoX$X$X$X$X%X%X|.`.Y.w.R.[.%X$X%XM.D v D v         ",
"N j 7.U.}.oXoX$X$X$X$X}.oX$X$X}.`.R.R.R.`.}.$X$XoXoX$X$X$X$X$X$X$X}.`.`.[.}.$X$X*Xf.V #.9.N b       ",
"v A k.I.(.oX$X$X$XoX}.(.).}.$X$X%X%X%X&X%X$X$X$XoX$X$XoXXX}.XXoX$X$X%X&XoXoXoXoX$Xu.b <.B.B B       ",
"h :.b.L.Q.}.$X%XoX_.L.J.J.Q.oX$X$X$X$XoX$X$X$X$X$X$X$X).P.G.}.$X$X$X$X$XoX$X}.Q.I.>.N 9.A.#.N       ",
"u 2.N.K.K.I.Q.Q.Q.L.J.K.K.L.{.oX$X$XoXoXoXoX$X$X$X$X$X{.P.G.}.$X$X$X$X$X%X{.Q.J.K.:.&.l.A.$.B       ",
"h 2.N.K.A.A.A.A.A.A.Z.l.l.J.(.$X$X$XoXoXoXoX$X$X$X$X$X}.(.^.oX$X$X$X$X$X}.Q.J.A.J.*.<.B.A.#.M       ",
"h *.l.K.J.J.J.J.J.A.l.A >.B. X}.oX$XoXoXoXoX$X$X$X$X$X$X$X$X$X$X$X$XoX}.Q.J.A.A.b.#.9.K.N.Z v       ",
"v z 9.J.K.J.J.J.J.B.*.u 7.A.J.L.(.oX$XoXoXoXoXoX$X$XoXoX$X$X$XoX$X$X}.I.J.J.J.A.,.:.l.V.*.b l       ",
"  l #.>.y.N.A.L.V.2.b #.0.N.K.K.L.Q.).$X$X$X$X$XoX$XoX$X$X$X$X%X$X).I.J.J.J.A.N.A *.>.*.b z         ",
"    h z D >.9.p.7.b z A @.=.0.c.Z.K.I._.).}.}.oXoX$XoXoX$XoX}.{._.I.J.J.J.K.V.2.z V M r i           ",
"      v u r e e i a m 6 : % = =.x.A.A.A.I.Q._.(.(.).{.{.).(._.I.J.A.J.J.K.A.k.j m m m a ,           ",
"        , q i a d Q ( ` _ Y 1 * @.l.L.J.J.J.J.J.J.J.J.J.J.J.J.J.J.J.J.J.L.z.A g ..o.~ 1 * *         ",
"      & & P (  . .o.o.o.o.o._ 3 < %.l.L.J.J.A.A.A.A.A.A.A.A.A.J.J.J.K.L.p.D | o.O.O.o.^ 1 *         ",
"    & 4 Y _ O.+.+.+.+.+.O.o.] ~ > 6 =.V.J.J.J.J.J.J.J.J.J.J.J.J.K.J.V.p.#.d ( +.+.O.+.o.~ 4 *       ",
"  * 1 I o.+.O.O.O.O.O.O.o.] ^ ' ^ L p 3.Z.J.J.J.J.J.J.J.J.J.J.J.B.l.7.n f / } O.O.O.O.+.O.I 4 *     ",
"* O I X.O.O.O.O.O.O.O.o.] ^ ^ ^ ' ~ 3 s N.A.J.J.J.J.J.J.J.J.J.B.7.v n ! / [ o.O.O.O.O.O.O.X.7 O     ",
"* 5 ( O.O.O.O.O.O.O.o.] ) ^ ^ ^ ^ ^ U q 4.B.L.L.L.L.L.K.V.y.:.F B d Q / ^ ' ] o.O.O.O.O.O.O.Y 1 *   ",
"* ~ o.+.O.+.O.O.o.{ ] ) ^ ^ ^ ^ ^ ' ~ P p 7.k.p.p.p.9.8.<.#.a f ! / ^ ) ^ ^ [ ] O.+.+.+.+.+.T 4 &   ",
"1 ` +.o.o.o.{ { ] ) ^ ^ ^ ^ ^ ^ ^ ^ ^ ~ = u b M M h # 0 p d ! / ^ ) ) ^ ^ ^ ^ ^ ` ` X.X.X.` R 1 *   ",
"8 ` o.] [ ) ^ ^ ^ ^ ^ ^ ^ ^ ^ ^ ^ ^ ^ ^ 5 2         0 7 Q ^ ^ ^ ^ ^ ^ ^ ^ ^ ~ W I P P P I 5 ; *     ",
"; I ^ [ ' ' ' ' ' ' ' ' ' ' ' ' ' ' [ ^ 5 -         - 1 5 5 5 5 5 5 5 5 5 5 5 4 4 1 1 1 4 < *       ",
"* 1 7 I E E W W W W E E E U U U I I I P 4                                                           ",
"  & & ; 1 4 5 5 5 5 4 4 1 1 1 < ; ; - & *                                                           ",
"                                                                                                    ",
"                                                                                                    ",
"                                                                                                    ",
"                                                                                                    ",
"                                                                                                    "
};
