/* XPM */
static char *_773d61c7eff4a29b536a4c2f6ac1deevdJUTCCDd9l2fYOs[] = {
/* columns rows colors chars-per-pixel */
"20 20 131 2 ",
"   c None",
".  c #020000",
"X  c #130000",
"o  c #140000",
"O  c #170100",
"+  c #120406",
"@  c #130406",
"#  c #1A0904",
"$  c #160708",
"%  c #170708",
"&  c #170808",
"*  c #1C0D0B",
"=  c #1D0D0B",
"-  c #1C0E0E",
";  c #0B0D19",
":  c #0B0F1A",
">  c #0C0E1A",
",  c #110E17",
"<  c #240000",
"1  c #260300",
"2  c #280500",
"3  c #280600",
"4  c #200900",
"5  c #26160F",
"6  c #28150C",
"7  c #2A170D",
"8  c #281610",
"9  c #291B1B",
"0  c #2C252F",
"q  c #3C2C27",
"w  c #2A2D3F",
"e  c #372D32",
"r  c #4C1F00",
"t  c #492000",
"y  c #4A2200",
"u  c #4C2000",
"i  c #4A2C00",
"p  c #4C2D02",
"a  c #4C2D03",
"s  c #41270B",
"d  c #512C00",
"f  c #533000",
"g  c #5D3400",
"h  c #472E1B",
"j  c #40291C",
"k  c #432C1F",
"l  c #4F331B",
"z  c #54361C",
"x  c #54371D",
"c  c #432D21",
"v  c #4B3223",
"b  c #523E39",
"n  c #523E3A",
"m  c #68400C",
"M  c #68400D",
"N  c #6D430C",
"B  c #6D430E",
"V  c #6E430E",
"C  c #6E440F",
"Z  c #6B4311",
"A  c #6B4312",
"S  c #704511",
"D  c #714611",
"F  c #704512",
"G  c #714612",
"H  c #754A17",
"J  c #754A18",
"K  c #5E422C",
"L  c #60432D",
"P  c #6A4B32",
"I  c #6D4D34",
"U  c #725136",
"Y  c #765438",
"T  c #775439",
"R  c #1B2B4E",
"E  c #2A2D40",
"W  c #313444",
"Q  c #383446",
"!  c #3C3B4C",
"~  c #33456B",
"^  c #48404B",
"/  c #56484E",
"(  c #474656",
")  c #484757",
"_  c #46475A",
"`  c #504753",
"'  c #574D57",
"]  c #5B4F56",
"[  c #5C5057",
"{  c #5C525E",
"}  c #474E66",
"|  c #5B5769",
" . c #4B5573",
".. c #4B5774",
"X. c #565F7B",
"o. c #585E78",
"O. c #54607F",
"+. c #807270",
"@. c #877975",
"#. c #897A75",
"$. c #8B7D77",
"%. c #8C7D78",
"&. c #8D7E78",
"*. c #576382",
"=. c #576482",
"-. c #5B678B",
";. c #5C678B",
":. c #5E6D93",
">. c #667192",
",. c #687496",
"<. c #67769B",
"1. c #68779B",
"2. c #69779B",
"3. c #69789B",
"4. c #69789C",
"5. c #69799D",
"6. c #6A799D",
"7. c #777F90",
"8. c #6E7FA5",
"9. c #6F7FA5",
"0. c #717FA0",
"q. c #707FA5",
"w. c #8B929B",
"e. c #8C92A1",
"r. c #939BA6",
"t. c #AAAFB7",
"y. c #ADB2B9",
"u. c #A8B2C2",
"i. c #B4BDC9",
"p. c #BAC3CD",
"a. c #BCC5CF",
/* pixels */
"                                        ",
"                                        ",
"                                        ",
"                                        ",
"  5 7 9 0 0 9 7 8 8 8 8 7 9 0 0 9 7 5   ",
"* k p ` :.:.` i v v v v i ` :.:.` p k * ",
"& L Z +.u.u.+.M I I I I M +.u.u.+.Z L $ ",
"@ P H &.a.a.&.G T T T T G &.a.a.&.J P @ ",
"$ K N &.p.p.$.G T T T T G $.p.p.&.C K $ ",
"* j g #.i.i.@.N U U U U N @.i.i.#.g j * ",
"* h d ] 0.0.[ u t t t t r [ 0.0.] d h * ",
"4 ! o.>.<.<.;.e.y.t.t.y.e.-.<.<.>.o.! 4 ",
"# E } X.O.O. .7.r.w.w.r.7. .O.O.X.} w # ",
"  O < e ....q Q ~ R R ~ Q q ....e < O   ",
"  - < ) 5.5./ | 1.,.,.1.| / 5.5.) < -   ",
"  - 2 ( 5.1.' l n n n n l ' 1.3.( 2 -   ",
": , X _ q.8.{ f z z z z f { 8.8._ O , : ",
"    . W =.*.^ s c c c c s ^ *.=.W .     ",
"                                        ",
"        : > > > > > > > > > > :         "
};
