/* XPM */
static char *_68a29ec385c4cfa95b5e0e460fee0f7wS21lag5dDC6d6h2[] = {
/* columns rows colors chars-per-pixel */
"20 20 117 2 ",
"   c None",
".  c black",
"X  c #020000",
"o  c #050000",
"O  c #060003",
"+  c #0A0000",
"@  c #0B0000",
"#  c #0F0000",
"$  c #0B0004",
"%  c #0B040C",
"&  c #100000",
"*  c #100306",
"=  c #1E0B05",
"-  c #13080C",
";  c #1A0B08",
":  c #1E0F0B",
">  c #1B0D0F",
",  c #1C0E0D",
"<  c #1C0E0E",
"1  c #0B0D19",
"2  c #0A0E1A",
"3  c #0C0E1A",
"4  c #220000",
"5  c #230000",
"6  c #240100",
"7  c #240200",
"8  c #260400",
"9  c #260500",
"0  c #270500",
"q  c #270600",
"w  c #270700",
"e  c #200F0A",
"r  c #20100C",
"t  c #20110D",
"y  c #321C0E",
"u  c #39230F",
"i  c #342016",
"p  c #0B1021",
"a  c #031A31",
"s  c #3B2820",
"d  c #3A2D2A",
"f  c #2B2D3D",
"g  c #441D00",
"h  c #4E2B00",
"j  c #4F2F00",
"k  c #4F2F04",
"l  c #4A2B08",
"z  c #4A2C09",
"x  c #4C2D0E",
"c  c #4C2D0F",
"v  c #523000",
"b  c #5E3600",
"n  c #4F3624",
"m  c #533825",
"M  c #634117",
"N  c #6E4410",
"B  c #6E4411",
"V  c #5F422C",
"C  c #61442F",
"Z  c #66472E",
"A  c #6C492A",
"S  c #6A492C",
"D  c #664832",
"F  c #6B4B32",
"G  c #664A38",
"H  c #735237",
"J  c #3F3942",
"K  c #494649",
"L  c #4B484B",
"P  c #504249",
"I  c #55464B",
"U  c #55474C",
"Y  c #5D514D",
"T  c #434253",
"R  c #474655",
"E  c #474656",
"W  c #434559",
"Q  c #564951",
"!  c #564C56",
"~  c #574E59",
"^  c #5B515C",
"/  c #6D5046",
"(  c #6F5D54",
")  c #4D5874",
"_  c #4F5975",
"`  c #5D5C71",
"'  c #5E5D71",
"]  c #5D5E74",
"[  c #715F62",
"{  c #64676D",
"}  c #6C686D",
"|  c #776964",
" . c #776A65",
".. c #80726F",
"X. c #887A75",
"o. c #576686",
"O. c #5C6B8C",
"+. c #5B6D90",
"@. c #626884",
"#. c #646984",
"$. c #7B7F86",
"%. c #607198",
"&. c #617198",
"*. c #68779B",
"=. c #69779B",
"-. c #66789D",
";. c #69789B",
":. c #68789C",
">. c #69789C",
",. c #6D7CA2",
"<. c #6E7DA2",
"1. c #7A8087",
"2. c #9FA5AD",
"3. c #A9B4C5",
"4. c #AAB4C5",
"5. c #B6BFC9",
"6. c #B8C0CA",
/* pixels */
"                                        ",
"                                        ",
"                                        ",
"        L K d y i i i i y d K L         ",
"      { 6.5.X.B H H H H B X.5.6.{       ",
"    l ( 1.$.Y c n n n n c Y $.1.( z     ",
"  . D A . . . % O O O O % . . . A D .   ",
"  . V F # = e t t t t t t e = & F V .   ",
"  . C S . . . - * * * * - . . . S C .   ",
"  $ g  .2.2. .b M Z Z M b  .2.2. .g $   ",
"  ; 4 } 3.3.../ [ G G [ / ..3.3.} 4 ;   ",
"  : q T &.&.P ] +.a a +.] P &.&.T q :   ",
"  < q R *.*.U ' O.p p O.' U *.*.R q <   ",
"  < q R ;.*.I ' -.o.o.-.' I *.*.R q <   ",
"  < q R *.*.Q ! @.#.#.@.! Q *.*.R q <   ",
"  > 6 R >.>.~ h j k k j h ~ >.>.R 6 >   ",
"1 1 + W <.<.^ v m m m m v ^ <.<.W + 1 1 ",
"    O f _ _ J u s s s s u J _ _ f O     ",
"                                        ",
"        1 3 3 3 3 3 3 3 3 3 3 1         "
};
