/* XPM */
static char *_23597ee554546ecf6eef0358430e2f7drhL1oHfVA5dPZ0e[] = {
/* columns rows colors chars-per-pixel */
"50 50 181 2 ",
"   c None",
".  c black",
"X  c #000010",
"o  c #00001E",
"O  c #000022",
"+  c #000023",
"@  c #000025",
"#  c #000026",
"$  c #000028",
"%  c #000029",
"&  c #00002B",
"*  c #00022A",
"=  c #00042B",
"-  c #00002C",
";  c #00002F",
":  c #00092B",
">  c #000039",
",  c #360034",
"<  c #3D0037",
"1  c #300039",
"2  c #25272E",
"3  c #292931",
"4  c #332B34",
"5  c #382D33",
"6  c #3E3234",
"7  c #422500",
"8  c #513D3B",
"9  c #334300",
"0  c #6B7100",
"q  c #756713",
"w  c #6E7218",
"e  c #5E443D",
"r  c #5F4B3B",
"t  c #495230",
"y  c #4C5030",
"u  c #744C37",
"i  c #685638",
"p  c #775D3F",
"a  c #606736",
"s  c #7D7E31",
"d  c #3D4E54",
"f  c #464141",
"g  c #654940",
"h  c #685E43",
"j  c #7D5A48",
"k  c #85790A",
"l  c #8B7F3F",
"z  c #903657",
"x  c #815F40",
"c  c #8A6E43",
"v  c #88604A",
"b  c #8E654E",
"n  c #94634C",
"m  c #91694D",
"M  c #936D4C",
"N  c #967146",
"B  c #97704C",
"V  c #997548",
"C  c #976B51",
"Z  c #9B6E51",
"A  c #9B6C55",
"S  c #A96F5A",
"D  c #A67656",
"F  c #AB7757",
"G  c #B37959",
"H  c #B17F59",
"J  c #B27E5B",
"K  c #7B8C2A",
"L  c #A08C00",
"P  c #A7AE16",
"I  c #979D28",
"U  c #8D9735",
"Y  c #8D9832",
"T  c #A8AD37",
"R  c #D0CC00",
"E  c #DEDD00",
"W  c #E7F000",
"Q  c #E7EE1C",
"!  c #EEF11D",
"~  c #C4CA3D",
"^  c #ECDA3D",
"/  c #E1E621",
"(  c #E7F22D",
")  c #E8E338",
"_  c #EBF332",
"`  c #EFFC3F",
"'  c #A9834F",
"]  c #AF8B4E",
"[  c #AF8D4D",
"{  c #B5904E",
"}  c #B4914E",
"|  c #AE8750",
" . c #B18050",
".. c #B68C55",
"X. c #B8835D",
"o. c #BB875C",
"O. c #BB9350",
"+. c #B99354",
"@. c #BC9455",
"#. c #9DA444",
"$. c #A5A341",
"%. c #B3A84A",
"&. c #B9B246",
"*. c #BEA155",
"=. c #BCA057",
"-. c #B5BA55",
";. c #B78D7C",
":. c #C19156",
">. c #CE9E57",
",. c #CF9F57",
"<. c #C39159",
"1. c #C3A04C",
"2. c #C2AE4C",
"3. c #C9B94F",
"4. c #C6A055",
"5. c #C6A156",
"6. c #CEA157",
"7. c #D0A057",
"8. c #D0A257",
"9. c #D2A557",
"0. c #D3A756",
"q. c #D0AC53",
"w. c #D5A856",
"e. c #DBAC59",
"r. c #D2B352",
"t. c #D7B554",
"y. c #D7BA50",
"u. c #C9C643",
"i. c #CDCC4B",
"p. c #D8C54E",
"a. c #D9C64E",
"s. c #D2CB49",
"d. c #DCCB4F",
"f. c #DBD847",
"g. c #DFD44B",
"h. c #DAD64D",
"j. c #D7DA4B",
"k. c #DED949",
"l. c #DFDD48",
"z. c #DACF50",
"x. c #E0DB49",
"c. c #E0DD49",
"v. c #E9DB4A",
"b. c #E3C755",
"n. c #E1CD54",
"m. c #E0E143",
"M. c #E2E547",
"N. c #E4E647",
"B. c #E8EF43",
"V. c #E8EE44",
"C. c #E0E449",
"Z. c #E9F243",
"A. c #E8F046",
"S. c #EDF648",
"D. c #E9F24D",
"F. c #EFF948",
"G. c #F0FC43",
"H. c #F2FD43",
"J. c #F1FB44",
"K. c #E6EC5F",
"L. c #F0E652",
"P. c #DCE574",
"I. c #FFFF6D",
"U. c #848388",
"Y. c #DEE29D",
"T. c #F0F185",
"R. c #EAF092",
"E. c #EEF295",
"W. c #EFF5A7",
"Q. c #E8ECB6",
"!. c #E7E9BA",
"~. c #F3F9B7",
"^. c #D5C1C2",
"/. c #CBCBD3",
"(. c #E7E9D6",
"). c #EAE5DD",
"_. c #FFFFD2",
"`. c #F6F8DD",
"'. c #E6E7E9",
"]. c #F8FBE0",
"[. c white",
/* pixels */
"                                                                                                    ",
"                                                                                                    ",
"                                                                                                    ",
"                                                                                                    ",
"                                                                                                    ",
"                                                                                                    ",
"                                                                                                    ",
"                                                                                                    ",
"                                                                                                    ",
"                                                                                                    ",
"                                                                                                    ",
"                                                                                                    ",
"                                                                                                    ",
"                                                                                                    ",
"                                                                                                    ",
"                                                                                                    ",
"                                                                                                    ",
"                                                                                                    ",
"                                                                                                    ",
"                                                                                                    ",
"                                                              a =                                   ",
"                                                            . j.C.Y                                 ",
"                                                          f d L v.L.x                               ",
"                                                    ; . . . './.q } p                               ",
"                                                  ; I Y.Q.T U.(.-.X                                 ",
"                                                > P I.[.[._.R 7 U 3                                 ",
"                                              o #.Q P.).^.].! =.1                                   ",
"                                          . 0 b 2.s h u ;.E.( b.V +                                 ",
"                                        w !.W.^ n ; 1.m.s./ A.t.O.%                                 ",
"                                      9 R.[.`.E i.t < $.N.S.g.>...;                                 ",
"                                      k T.~.K.+.%.K u.,  .4.@.o.A %                                 ",
"                                      B ) W _ h.z v l y f.4.S Z 6                                   ",
"                                      N n.D.F.3.=.z.&.~ H.a.G m 5                                   ",
"                                      i >.d.B.M.Z.` H.J.V.r.F X.j +                                 ",
"                                      @ [ e.q.a.x.c.l.k.y.:.J D 4                                   ",
"                                        2 ] 6.7.0.0.w.7.<.J C 8 :                                   ",
"                                          ; r c ' } | M g e % =                                     ",
"                                              @ % % % %                                             ",
"                                                                                                    ",
"                                                                                                    ",
"                                                                                                    ",
"                                                                                                    ",
"                                                                                                    ",
"                                                                                                    ",
"                                                                                                    ",
"                                                                                                    ",
"                                                                                                    ",
"                                                                                                    ",
"                                                                                                    ",
"                                                                                                    "
};
