/* XPM */
static char *_5529bf65b564910d798f145661d611fMSHVVPNQsyYXBkSi[] = {
/* columns rows colors chars-per-pixel */
"50 50 147 2 ",
"   c None",
".  c #1D1A38",
"X  c #1B2C41",
"o  c #273250",
"O  c #263C55",
"+  c #283E55",
"@  c #26365D",
"#  c #2A355B",
"$  c #2A3E5E",
"%  c #0E434B",
"&  c #274357",
"*  c #27405D",
"=  c #2A445C",
"-  c #264D5A",
";  c #294B5E",
":  c #205657",
">  c #2C4761",
",  c #2B4C62",
"<  c #275664",
"1  c #2A5262",
"2  c #275C63",
"3  c #2A5B65",
"4  c #2B5D69",
"5  c #19716F",
"6  c #137171",
"7  c #1D7570",
"8  c #266466",
"9  c #286067",
"0  c #276C66",
"q  c #2D6E63",
"w  c #27646B",
"e  c #29656A",
"r  c #266C6D",
"t  c #286B6C",
"y  c #277265",
"u  c #2C7464",
"i  c #2D7D67",
"p  c #27726F",
"a  c #28746E",
"s  c #257B6E",
"d  c #297B6E",
"f  c #256E70",
"g  c #2B6D70",
"h  c #277471",
"j  c #297372",
"k  c #2A7C75",
"l  c #2D7678",
"z  c #2B7D7A",
"x  c #30A75E",
"c  c #2F8465",
"v  c #2D8E65",
"b  c #2A846D",
"n  c #248B6D",
"m  c #2C8C6B",
"M  c #308866",
"N  c #3B8F63",
"B  c #358B6A",
"V  c #3D8C69",
"C  c #2E9566",
"Z  c #26926C",
"A  c #2D946B",
"S  c #2E996B",
"D  c #369567",
"F  c #3B9666",
"G  c #379D67",
"H  c #3B9D66",
"J  c #31956A",
"K  c #3A9568",
"L  c #339A6A",
"P  c #399C68",
"I  c #2B8374",
"U  c #2E8C74",
"Y  c #2E8A7B",
"T  c #2F9375",
"R  c #2A9871",
"E  c #319B73",
"W  c #319979",
"Q  c #3EA166",
"!  c #37A16B",
"~  c #3CA36D",
"^  c #34A773",
"/  c #33A178",
"(  c #4AA75F",
")  c #4FAC5F",
"_  c #52AE5E",
"`  c #4FB05B",
"'  c #5CB757",
"]  c #5DB957",
"[  c #55B25B",
"{  c #59B55A",
"}  c #5CBA5A",
"|  c #60BC55",
" . c #62BB5B",
".. c #6CBB5A",
"X. c #72BD5A",
"o. c #7EBF5D",
"O. c #429467",
"+. c #409F65",
"@. c #4B9D63",
"#. c #43A364",
"$. c #42A364",
"%. c #40A065",
"&. c #43A464",
"*. c #45A463",
"=. c #48A363",
"-. c #4CA061",
";. c #49A762",
":. c #48A763",
">. c #4AA763",
",. c #48A762",
"<. c #47A967",
"1. c #47A963",
"2. c #4BA961",
"3. c #4BAB60",
"4. c #4CAA60",
"5. c #4DAB60",
"6. c #4DAA61",
"7. c #4DAC60",
"8. c #4BAB62",
"9. c #40A96E",
"0. c #51AE66",
"q. c #54B965",
"w. c #59BA60",
"e. c #59BC64",
"r. c #62C55A",
"t. c #60C25C",
"y. c #60C05E",
"u. c #5FC160",
"i. c #80C05B",
"p. c #83C15C",
"a. c #89C35D",
"s. c #8AC35D",
"d. c #9BC95E",
"f. c #A5CC5F",
"g. c #AFD160",
"h. c #BBD762",
"j. c #BDD762",
"k. c #B9D764",
"l. c #BBD764",
"z. c #BFD863",
"x. c #C1DA63",
"c. c #C0DA64",
"v. c #C6E368",
"b. c #C3E469",
"n. c #CBE469",
"m. c #CDE76A",
"M. c #D1EE6E",
/* pixels */
"                                                                                                    ",
"                                                                                                    ",
"                                                                                                    ",
"                                                  M.                                                ",
"                                                k.m.g.                                              ",
"                                                c.z.b.                                              ",
"                                                v.j.n.                                              ",
"                                              j.  h.a.k.                                            ",
"                                            x.    d...i.f.                                          ",
"                                                X.d.o.x  .                                          ",
"                                          [ [ `  .a.X.Q ) t.                                        ",
"                                        ] u.>.) ' p...} +.  5.9.                                    ",
"                                      _ q.    r.[ [ [ { } P     A                                   ",
"                                    H       } -.K %._ L ) [ b                                       ",
"                                          0.V 6 ,.) L A Z &.! s                                     ",
"                                        D A b m A 5.%.Z L A L J                                     ",
"                                        ~ &.A A J A L A b J A S                                     ",
"                                      <.{ P A Z ,.,.n G O.s G 2.P                                   ",
"                                  K e.w.( L P %.2.' ,.[ ] V B | %.G                                 ",
"                                  t.]     A 2.{ [ ' { [ ] ] F +.{ >.>.                              ",
"                                        n P ' ] 5.[ { F O.' ] L Q >.P J                             ",
"                                      S Q { _ K Z L { [ 7 V [ { P A A L U                           ",
"                                  A L >.) L b =.[ G A [ 7.n b Q Q A   m E W d                       ",
"                                A A L L n H [ ] ] %.Z J ,.%.A A b L L       a t                     ",
"                          p k d   A A 7 V ] { ' 5.L >.A A L A L m   b I                             ",
"                        p         s f @.] [ { [ A 5.Q A L m b d A C                                 ",
"                              b b V _ ' [ G H L J H A A A A d a p S ^ A                             ",
"                            b S J 5.&.G 2.G A A A A A G J A J m b d m L i                           ",
"                        d m A m m A A A b A L A A m m H ,.Z A ,.L A A A v i j p                     ",
"                            j d m L J b b A A A A b p B { #.,.,.) L A E v     p z p                 ",
"                            b A 2.2.J A G &.H ,.A m a A ) ] { [ ] [ S   L d                         ",
"                          m ! 1.%.A Z P [ ,.[ P A J b A Q [ G _ _ ' ,.m     b                       ",
"                      A / m b a s A H { %.G &.m M S A J A #.H n A [ _ R t                           ",
"                  p a       O < m >.[ Q A A S q 8 L G A L S J a s L G S m , ,                       ",
"                          # ; D 8.2.J y q S i 3 f m 5.L u c L m t a b A A i =                       ",
"                      ; 3 u m F N u 3 u A b d a r a H Q 0 , u m d r f p p k w                       ",
"                    w 1 q u 3 * @ # q b b A b r p b b A A a w p d p 3 t 8 < g e     p               ",
"              t j k j 3   $ = 1 3 e t a m b r r f b m d m m h p r h w 3 h       p t r j             ",
"                          ; 3 t h h h p t h 9 e h r a d f a p p 3 t h p p I                         ",
"                          1 , ; = 1 3 ; e e 3 t t h r r t r p p t - w I m A S m                     ",
"                      r   3 ; ; 4 ; o 4 h e r 1 3 h 3 ; 1 e h p h w : w I T T Y Y k                 ",
"                  p k j t w t r       4 e e - + t t + ; = & 2 e j k t                               ",
"                                    , = > = . + 3 &   ; g &     1   t t r                           ",
"                                  j j e ;     g , X     r l <                                       ",
"                                            7 5 %           p j p                                   ",
"                                                                                                    ",
"                                                                                                    ",
"                                                                                                    ",
"                                                                                                    ",
"                                                                                                    "
};
